<svg width="45" height="41" viewBox="0 0 45 41" fill="none" xmlns="http://www.w3.org/2000/svg">
<path d="M24.2886 20.0776L29.833 15.1633L11.9249 6.24203C10.738 5.67365 9.62613 5.59388 8.65113 6.21544L24.2886 20.0776ZM30.778 25.8312L36.5418 22.9577C37.6668 22.3993 38.2836 21.6083 38.2836 20.7308C38.2836 19.8549 37.6667 19.0622 36.5436 18.5038L31.3255 15.9062L25.4511 21.1113L30.778 25.8312ZM7.68738 7.42366C7.56738 7.75106 7.49988 8.11669 7.49988 8.51721V32.9559C7.49988 33.5891 7.65738 34.1342 7.94238 34.568L23.1243 21.1097L7.68738 7.42366ZM24.2886 22.1401L9.19113 35.5236C9.47988 35.6217 9.79113 35.6732 10.1193 35.6732C10.7043 35.6732 11.3136 35.5203 11.9343 35.2145L29.2874 26.5774L24.2886 22.1401Z" fill="white"/>
</svg>
