<svg width="63" height="63" viewBox="0 0 63 63" fill="none" xmlns="http://www.w3.org/2000/svg">
<path d="M39.3924 41H23.1573V37.0435L31.1725 28.7213C32.7869 27.0387 33.5941 25.6289 33.5941 24.492C33.5941 23.7416 33.3668 23.139 32.912 22.6843C32.4572 22.2068 31.8319 21.968 31.0361 21.968C29.4444 21.968 28.2734 22.8321 27.523 24.5602L22.9185 21.8657C23.6461 20.2058 24.7262 18.9211 26.1587 18.0115C27.5912 17.102 29.1943 16.6472 30.9679 16.6472C33.219 16.6472 35.1176 17.3408 36.6638 18.7278C38.2555 20.0921 39.0513 21.9339 39.0513 24.2532C39.0513 26.7772 37.8121 29.2784 35.3336 31.7569L31.3772 35.7474H39.3924V41Z" fill="#75BF7A"/>
<path d="M59.8302 19.8391L59.6756 19.4624L59.3885 19.7511L53.6696 25.5002L53.5606 25.6098L53.5998 25.7594C54.0779 27.5821 54.3172 29.4652 54.3172 31.4096C54.3172 44.0293 44.0596 54.2869 31.4399 54.2869C18.7897 54.2869 8.5323 44.0291 8.5323 31.4096C8.5323 29.4344 8.77171 27.521 9.24966 25.6988L9.28889 25.5493L9.17983 25.4396L3.46101 19.6906L3.17292 19.4009L3.01899 19.7793C1.55408 23.3806 0.729692 27.2881 0.729692 31.4096C0.729692 48.322 14.4972 62.0895 31.4096 62.0895C48.322 62.0895 62.0895 48.322 62.0895 31.4096C62.0895 27.3198 61.2959 23.4119 59.8302 19.8391ZM50.4294 18.7004L50.6125 18.9735L50.845 18.741L56.0495 13.5365L56.2143 13.3717L56.0755 13.1845C50.4897 5.64515 41.5148 0.729692 31.4096 0.729692C21.3351 0.729692 12.36 5.61454 6.77395 13.1542L6.63522 13.3415L6.80001 13.5063L12.0044 18.7107L12.237 18.9432L12.4201 18.6701C15.8893 13.4962 21.4218 9.81817 27.8204 8.80138C28.9861 8.62207 30.1825 8.5323 31.4096 8.5323C32.6368 8.5323 33.8332 8.62208 34.999 8.8014C41.4272 9.81813 46.9598 13.5259 50.4294 18.7004Z" fill="#75BF7A" stroke="#75BF7A" stroke-width="0.540615"/>
</svg>
